<!DOCTYPE svg PUBLIC "-//W3C//DTD SVG 1.1//EN" "http://www.w3.org/Graphics/SVG/1.1/DTD/svg11.dtd">
<!-- Uploaded to: SVG Repo, www.svgrepo.com, Transformed by: SVG Repo Mixer Tools -->
<svg fill="#000000" width="800px" height="800px" viewBox="0 0 24 24" id="chat-alt-5" data-name="Flat Color" xmlns="http://www.w3.org/2000/svg" class="icon flat-color" stroke="#000000" stroke-width="0.4800000000000001">
<g id="SVGRepo_bgCarrier" stroke-width="0"/>
<g id="SVGRepo_tracerCarrier" stroke-linecap="round" stroke-linejoin="round"/>
<g id="SVGRepo_iconCarrier">
<path id="primary" d="M20,2H4A2,2,0,0,0,2,4V16a2,2,0,0,0,2,2H7v3a1,1,0,0,0,.57.9A.91.91,0,0,0,8,22a1,1,0,0,0,.62-.22L13.35,18H20a2,2,0,0,0,2-2V4A2,2,0,0,0,20,2Z" style="fill: #C7CAD6;"/>
<path id="secondary" d="M9.5,10A1.5,1.5,0,1,1,8,8.5,1.5,1.5,0,0,1,9.5,10ZM12,8.5A1.5,1.5,0,1,0,13.5,10,1.5,1.5,0,0,0,12,8.5Zm4,0A1.5,1.5,0,1,0,17.5,10,1.5,1.5,0,0,0,16,8.5Z" style="fill: #000000;"/>
</g>
</svg>