<!DOCTYPE svg PUBLIC "-//W3C//DTD SVG 1.1//EN" "http://www.w3.org/Graphics/SVG/1.1/DTD/svg11.dtd">
<!-- Uploaded to: SVG Repo, www.svgrepo.com, Transformed by: SVG Repo Mixer Tools -->
<svg fill="#000000" width="800px" height="800px" viewBox="0 0 24 24" id="add-collection" data-name="Flat Color" xmlns="http://www.w3.org/2000/svg" class="icon flat-color" stroke="#000000" stroke-width="0.696">
<g id="SVGRepo_bgCarrier" stroke-width="0"/>
<g id="SVGRepo_tracerCarrier" stroke-linecap="round" stroke-linejoin="round"/>
<g id="SVGRepo_iconCarrier">
<path id="primary" d="M20,22H7a1,1,0,0,1,0-2H20V5a1,1,0,0,1,2,0V20A2,2,0,0,1,20,22ZM16,2H4A2,2,0,0,0,2,4V16a2,2,0,0,0,2,2H16a2,2,0,0,0,2-2V4A2,2,0,0,0,16,2Z" style="fill: #C7CAD6;"/>
<path id="secondary" d="M10,14a1,1,0,0,1-1-1V11H7A1,1,0,0,1,7,9H9V7a1,1,0,0,1,2,0V9h2a1,1,0,0,1,0,2H11v2A1,1,0,0,1,10,14Z" style="fill: #000000;"/>
</g>
</svg>