<!DOCTYPE svg PUBLIC "-//W3C//DTD SVG 1.1//EN" "http://www.w3.org/Graphics/SVG/1.1/DTD/svg11.dtd">
<!-- Uploaded to: SVG Repo, www.svgrepo.com, Transformed by: SVG Repo Mixer Tools -->
<svg fill="#000000" width="800px" height="800px" viewBox="0 0 24 24" id="settings-alt" data-name="Flat Line" xmlns="http://www.w3.org/2000/svg" class="icon flat-line">
<g id="SVGRepo_bgCarrier" stroke-width="0"/>
<g id="SVGRepo_tracerCarrier" stroke-linecap="round" stroke-linejoin="round"/>
<g id="SVGRepo_iconCarrier">
<path id="secondary" d="M21.19,11.29l-1.9-1.9a1,1,0,0,1-.29-.7V6a1,1,0,0,0-1-1H15.31a1,1,0,0,1-.7-.29l-1.9-1.9a1,1,0,0,0-1.42,0l-1.9,1.9a1,1,0,0,1-.7.29H6A1,1,0,0,0,5,6V8.69a1,1,0,0,1-.29.7l-1.9,1.9a1,1,0,0,0,0,1.42l1.9,1.9a1,1,0,0,1,.29.7V18a1,1,0,0,0,1,1H8.69a1,1,0,0,1,.7.29l1.9,1.9a1,1,0,0,0,1.42,0l1.9-1.9a1,1,0,0,1,.7-.29H18a1,1,0,0,0,1-1V15.31a1,1,0,0,1,.29-.7l1.9-1.9A1,1,0,0,0,21.19,11.29ZM12,15a3,3,0,1,1,3-3A3,3,0,0,1,12,15Z" style="fill: #C7CAD6; stroke-width: 2;"/>
<path id="primary" d="M15,12a3,3,0,1,1-3-3A3,3,0,0,1,15,12Zm4-3.31V6a1,1,0,0,0-1-1H15.31a1,1,0,0,1-.7-.29l-1.9-1.9a1,1,0,0,0-1.42,0l-1.9,1.9a1,1,0,0,1-.7.29H6A1,1,0,0,0,5,6V8.69a1,1,0,0,1-.29.7l-1.9,1.9a1,1,0,0,0,0,1.42l1.9,1.9a1,1,0,0,1,.29.7V18a1,1,0,0,0,1,1H8.69a1,1,0,0,1,.7.29l1.9,1.9a1,1,0,0,0,1.42,0l1.9-1.9a1,1,0,0,1,.7-.29H18a1,1,0,0,0,1-1V15.31a1,1,0,0,1,.29-.7l1.9-1.9a1,1,0,0,0,0-1.42l-1.9-1.9A1,1,0,0,1,19,8.69Z" style="fill: none; stroke: #000000; stroke-linecap: round; stroke-linejoin: round; stroke-width: 2;"/>
</g>
</svg>